<svg xmlns="http://www.w3.org/2000/svg" width="473.02" height="567.623"><path d="M.985 555.268c1.471-6.881 8.009-41.173 14.527-76.204 40.093-215.462 103.303-391.836 160.437-447.661 43.101-42.114 78.483-41.885 121.47.785 57.595 57.171 119.977 231.305 160.09 446.877 6.519 35.031 13.056 69.323 14.527 76.204 2.154 10.074 1.016 12.48-5.843 12.35-5.587-.106-16.138-12.54-30.662-36.132-44.5-72.286-96.431-126.976-143.176-150.784-29.895-15.226-74.984-17.194-102.617-4.479-50.282 23.137-105.704 79.657-152.248 155.263-14.524 23.592-25.075 36.026-30.662 36.132-6.859.13-7.997-2.276-5.843-12.35zm97.301-178.086c29.045-43.628 75.855-91.973 99.808-103.079 27.05-12.542 47.951-13.224 71.656-2.336 29.162 13.394 73.898 58.44 105.255 105.984 14.409 21.847 27.043 38.896 28.076 37.887 3.65-3.567-47.141-121.568-66.935-155.506-70.367-120.651-123.185-124.027-191.881-12.267-25.376 41.283-86.107 180.741-73.881 169.654 1.457-1.321 14.013-19.472 27.903-40.336z" fill="#900"/></svg>