<svg xmlns="http://www.w3.org/2000/svg" version="1" width="800" height="202.746" viewBox="0 0 800 302.572"><path d="M-196.949 0h77.346c24.432 0 42.939 1.903 55.524 5.709 12.584 3.806 22.743 11.51 30.478 23.112 7.734 11.602 11.602 30.294 11.602 56.076 0 17.434-2.732 29.588-8.195 36.463-5.464 6.875-16.237 12.155-32.32 15.838 17.925 4.052 30.079 10.773 36.463 20.165s9.576 23.787 9.576 43.185v27.624c0 20.135-2.302 35.051-6.906 44.75-4.604 9.699-11.94 16.329-22.007 19.889-10.067 3.56-30.693 5.341-61.877 5.341h-89.685v-298.152zm77.531 51.012v66.297c3.315-.123 5.893-.184 7.735-.184 7.612 0 12.461-1.872 14.548-5.617 2.087-3.744 3.131-14.456 3.131-32.136 0-9.33-.86-15.868-2.578-19.613-1.719-3.744-3.96-6.108-6.722-7.09-2.762-.982-8.134-1.534-16.114-1.657zm0 112.705v83.424c10.927-.368 17.894-2.087 20.902-5.156 3.008-3.069 4.512-10.62 4.512-22.651v-27.808c0-12.768-1.351-20.503-4.051-23.204-2.701-2.701-9.822-4.236-21.362-4.604zm297.047-24.125v59.851c0 21.976-1.105 38.09-3.315 48.342-2.21 10.252-6.937 19.828-14.18 28.729-7.244 8.901-16.544 15.469-27.9 19.705-11.357 4.236-24.401 6.353-39.134 6.353-16.452 0-30.386-1.811-41.804-5.433-11.418-3.622-20.288-9.085-26.611-16.39s-10.835-16.145-13.536-26.519c-2.701-10.374-4.051-25.936-4.051-46.684v-62.614c0-22.713 2.455-40.453 7.366-53.222 4.911-12.768 13.75-23.02 26.519-30.754 12.768-7.734 29.097-11.602 48.986-11.602 16.697 0 31.031 2.486 43.001 7.458 11.97 4.973 21.209 11.449 27.716 19.429 6.507 7.98 10.957 16.206 13.351 24.677s3.591 21.363 3.591 38.673zm-74.4-18.416c0-12.523-.675-20.411-2.026-23.664-1.351-3.253-4.236-4.88-8.655-4.88-4.42 0-7.366 1.627-8.84 4.88-1.473 3.254-2.21 11.142-2.21 23.664v110.311c0 11.541.737 19.06 2.21 22.559 1.473 3.499 4.358 5.249 8.655 5.249 4.42 0 7.336-1.596 8.748-4.788 1.412-3.192 2.118-10.067 2.118-20.626v-112.705zm173.477-67.402l-2.947 32.044c10.804-22.958 26.457-35.113 46.96-36.463v86.002c-13.628 0-23.634 1.842-30.018 5.525-6.384 3.683-10.313 8.809-11.786 15.377-1.473 6.568-2.21 21.7-2.21 45.395v96.499h-74.4v-244.378h74.4zm137.014-53.774v298.152h-76.61v-298.152h76.61zm93 148.432h-69.796v-16.39c0-18.907 2.179-33.486 6.538-43.738 4.358-10.251 13.106-19.306 26.243-27.163 13.137-7.857 30.202-11.786 51.196-11.786 25.168 0 44.136 4.451 56.905 13.351 12.768 8.901 20.441 19.828 23.02 32.78 2.578 12.953 3.867 39.625 3.867 80.017v122.649h-72.374v-21.731c-4.543 8.717-10.405 15.254-17.587 19.613-7.182 4.358-15.746 6.538-25.69 6.538-13.014 0-24.953-3.652-35.819-10.957-10.865-7.305-16.298-23.296-16.298-47.973v-20.073c0-18.293 2.885-30.754 8.655-37.384 5.77-6.63 20.073-14.364 42.909-23.204 24.432-9.576 37.507-16.022 39.226-19.337 1.719-3.315 2.578-10.067 2.578-20.257 0-12.768-.952-21.086-2.854-24.953-1.903-3.867-5.064-5.801-9.484-5.801-5.034 0-8.164 1.627-9.392 4.88-1.228 3.254-1.842 11.694-1.842 25.322v25.598zm23.572 33.517c-11.909 8.717-18.815 16.022-20.718 21.915-1.903 5.893-2.855 14.364-2.854 25.414 0 12.646.829 20.81 2.486 24.493 1.657 3.683 4.942 5.525 9.852 5.525 4.665 0 7.704-1.443 9.116-4.328 1.412-2.885 2.118-10.466 2.118-22.744v-50.275zm175.687-128.174l-1.289 22.467c5.402-8.962 12.001-15.684 19.797-20.165 7.796-4.481 16.789-6.722 26.979-6.722 12.768 0 23.204 3.008 31.307 9.024 8.103 6.016 13.321 13.597 15.653 22.744 2.332 9.147 3.499 24.401 3.499 45.763v171.267h-74.4v-169.241c0-16.82-.553-27.071-1.657-30.754-1.105-3.683-4.174-5.525-9.208-5.525-5.279 0-8.594 2.118-9.945 6.353-1.351 4.236-2.026 15.562-2.026 33.977v165.19h-74.4v-244.378h75.689zm290.97-53.774v298.152h-74.4v-17.679c-7.121 7.366-14.61 12.891-22.467 16.574-7.857 3.683-16.083 5.525-24.677 5.525-11.541 0-21.547-3.039-30.018-9.116s-13.904-13.106-16.298-21.086c-2.394-7.98-3.591-20.994-3.591-39.042v-114.362c0-18.784 1.197-32.105 3.591-39.962 2.394-7.857 7.888-14.763 16.482-20.718 8.594-5.954 18.845-8.931 30.754-8.932 9.208 0 17.648 1.658 25.322 4.972 7.673 3.315 14.64 8.287 20.902 14.917v-69.243h74.4zm-74.4 115.283c0-8.962-.767-14.978-2.302-18.048-1.535-3.069-4.573-4.604-9.116-4.604-4.42 0-7.397 1.381-8.932 4.144-1.535 2.763-2.302 8.932-2.302 18.508v119.703c0 9.945.737 16.482 2.21 19.613 1.473 3.131 4.297 4.696 8.471 4.696 4.788 0 7.98-1.749 9.576-5.249 1.596-3.499 2.394-12.062 2.394-25.69v-113.073z" font-size="377.156" font-family="Impact"/></svg>